# xmcd CD database file
#
# Track frame offsets:
#	150
#	14686
#	35880
#	53546
#	75773
#	91964
#	110377
#	137589
#	154270
#	171832
#	188027
#	207358
#	220235
#	235543
#	251872
#
# Disc length: 3591 seconds
#
# Revision: 0
# Processed by: cddbd v1.5.1PL0 Copyright (c) Steve Scherf et al.
# Submitted via: CDex 1.50
#
DISCID=c40e050f
DTITLE=Eyfi - Engan Jazz hér!
DYEAR=2002
DGENRE=Jazz
TTITLE0=Dagar
TTITLE1=Gott
TTITLE2=Álfheiður Björk
TTITLE3=Danska lagið
TTITLE4=Èg lifi í draumi
TTITLE5=Aðeins þú
TTITLE6=Breyskur maður
TTITLE7=Kannski er ástin
TTITLE8=Skref fyrir skref
TTITLE9=Sumarlag
TTITLE10=Allt sem skiptir máli
TTITLE11=Aftur heim
TTITLE12=Ertu viss
TTITLE13=Draumur um Nínu
TTITLE14=Ástarævintýri (á Vetrarbraut)
EXTD=YEAR: 2002
EXTT0=
EXTT1=
EXTT2=
EXTT3=
EXTT4=
EXTT5=
EXTT6=
EXTT7=
EXTT8=
EXTT9=
EXTT10=
EXTT11=
EXTT12=
EXTT13=
EXTT14=
PLAYORDER=
